<?xml version="1.0" standalone="no"?>
<!DOCTYPE svg PUBLIC "-//W3C//DTD SVG 20010904//EN"
 "http://www.w3.org/TR/2001/REC-SVG-20010904/DTD/svg10.dtd">
<svg version="1.0" xmlns="http://www.w3.org/2000/svg"
 width="210.000000pt" height="37.000000pt" viewBox="0 0 210.000000 37.000000"
 preserveAspectRatio="xMidYMid meet">
<metadata>
Created by potrace 1.16, written by Peter Selinger 2001-2019
</metadata>
<g transform="translate(0.000000,37.000000) scale(0.100000,-0.100000)"
fill="#000000" stroke="none">
<path d="M200 241 c-14 -4 -23 -14 -21 -22 2 -8 6 -35 10 -61 l6 -47 38 35
c20 19 37 43 37 54 0 11 4 20 10 20 8 0 14 -22 23 -90 2 -19 5 -15 13 20 8 39
13 45 37 48 16 2 42 -1 58 -7 45 -16 25 7 -26 30 -49 22 -147 32 -185 20z"/>
</g>
</svg>
