<?xml version="1.0" standalone="no"?>
<!DOCTYPE svg PUBLIC "-//W3C//DTD SVG 20010904//EN"
 "http://www.w3.org/TR/2001/REC-SVG-20010904/DTD/svg10.dtd">
<svg version="1.0" xmlns="http://www.w3.org/2000/svg"
 width="239.000000pt" height="40.000000pt" viewBox="0 0 239.000000 40.000000"
 preserveAspectRatio="xMidYMid meet">
<metadata>
Created by potrace 1.16, written by Peter Selinger 2001-2019
</metadata>
<g transform="translate(0.000000,40.000000) scale(0.100000,-0.100000)"
fill="#000000" stroke="none">
<path d="M310 281 c-15 -4 -23 -14 -21 -22 2 -8 6 -36 9 -62 5 -48 5 -48 24
-27 10 11 29 27 42 36 16 10 22 21 19 34 -3 11 -1 20 5 20 10 0 16 -21 25 -90
2 -19 5 -15 13 20 8 39 13 45 37 48 16 2 42 -1 58 -7 45 -15 25 7 -25 29 -47
21 -149 33 -186 21z"/>
</g>
</svg>
