<svg width="160" height="28" viewBox="0 0 160 28" fill="none" xmlns="http://www.w3.org/2000/svg">
<g clip-path="url(#clip0_3730_1107)">
<path d="M56.9348 27.9905C51.1681 27.9905 45.8245 26.2729 42.2621 23.0699C40.9882 21.9252 39.9732 20.522 39.2848 18.9538C38.5964 17.3856 38.2505 15.6886 38.2703 13.9761C38.2663 12.2707 38.6194 10.5834 39.3069 9.02264C39.9944 7.46192 41.0011 6.06243 42.2621 4.91423C45.57 1.90844 51.4226 0 56.9348 0C63.0323 0 67.9147 1.53629 71.6457 4.9206C72.9017 6.0684 73.9016 7.46815 74.5801 9.0285C75.2586 10.5889 75.6005 12.2747 75.5834 13.9761C75.5749 15.6792 75.2217 17.363 74.5449 18.9259C73.8682 20.4887 72.8819 21.8984 71.6457 23.0699C68.1692 26.2919 62.711 27.9905 56.9348 27.9905V24.3072C59.9915 24.3072 62.8287 23.2512 64.8103 21.2791C66.7919 19.3071 67.692 16.9151 67.692 13.9634C67.692 11.1453 66.7028 8.51164 64.8103 6.64773C62.8541 4.72339 59.9501 3.63876 56.9348 3.63876C53.9195 3.63876 51.0027 4.71385 49.0466 6.64773C47.1604 8.51482 46.1839 11.158 46.1839 13.9634C46.1556 15.3113 46.3939 16.6515 46.8852 17.9069C47.3765 19.1624 48.111 20.3084 49.0466 21.2791C51.0027 23.2289 53.9004 24.3072 56.9348 24.3072V27.9905ZM14.8282 0C11.7461 0 8.24413 0.578894 5.28604 1.90844C2.52517 3.14257 0.276387 5.12416 0.276387 8.40986C0.272239 10.1305 0.92662 11.7875 2.10531 13.041C2.90367 13.7789 4.19187 15.0321 7.55709 15.7701C9.06157 16.0882 12.2773 16.6003 15.4803 16.9374C18.6833 17.2746 21.7877 17.5736 23.06 17.9139C24.0715 18.1715 25.7732 18.5214 25.7732 20.4299C25.7732 22.3383 23.9824 22.9108 23.6707 23.0349C23.359 23.1589 21.2088 24.145 17.3474 24.145C14.789 24.0739 12.2538 23.638 9.81859 22.8504C8.37772 22.3351 6.86687 21.6576 5.4578 19.9368C4.88915 19.1265 4.57367 18.1657 4.55129 17.176H1.05249V26.9726H4.93934V25.6463C4.93873 25.5479 4.96435 25.4511 5.01357 25.3659C5.06279 25.2807 5.13383 25.2102 5.21937 25.1616C5.30491 25.113 5.40186 25.0881 5.50024 25.0894C5.59861 25.0907 5.69486 25.1183 5.77906 25.1691C7.61028 25.966 9.51507 26.5817 11.4662 27.0076C13.5082 27.4338 14.8282 27.7424 17.3665 27.7424C20.0448 27.7933 22.7142 27.4164 25.2738 26.6259C26.9734 26.16 28.5681 25.373 29.9717 24.3072C30.7612 23.7008 31.3992 22.9196 31.8358 22.0249C32.2723 21.1303 32.4955 20.1466 32.4877 19.1512C32.5009 17.2601 31.7711 15.4394 30.4552 14.0811C29.7235 13.371 28.8758 12.7912 27.9488 12.3667C26.9522 11.9164 25.9176 11.5556 24.8571 11.2884C22.8405 10.7954 18.3111 10.1783 16.1451 9.96206C13.874 9.72668 9.93309 9.39907 8.35863 8.91242C7.88152 8.76292 6.90822 8.30171 6.90822 7.17255C6.90822 6.36783 7.35352 5.68715 8.2314 5.13689C9.62774 4.26218 12.4459 3.71828 15.3849 3.71828C18.2296 3.68394 21.0511 4.23502 23.6739 5.33727C24.3785 5.64425 25.0412 6.03972 25.6459 6.51414C26.6317 7.3561 27.3144 8.49795 27.5893 9.76485H30.7287V1.23731H27.2299V2.22651C27.2299 2.54459 26.9119 2.96444 26.2757 2.61774C24.6981 1.79711 20.2641 0.0222651 14.8282 0ZM91.6398 1.56492L108.739 16.9947L108.564 6.60638C108.545 5.24185 108.297 4.6725 106.821 4.6725H103.609V1.56492H118.24V4.6725H115.101C113.6 4.6725 113.511 5.15597 113.485 6.60638L113.749 26.4573H108.739L89.0411 8.88061V21.3523C89.057 22.7104 89.1206 23.3498 90.517 23.3498H94.0158V26.4573H79.6739V23.3498H83.0327C84.2859 23.3498 84.235 22.1538 84.235 21.2823V6.72407C84.235 5.76985 84.1014 4.67568 82.1357 4.67568H79.413V1.56492H91.6398ZM134.933 23.3434C135.222 23.3434 135.511 23.3254 135.798 23.2893C135.947 23.2446 136.085 23.1679 136.201 23.0647C136.317 22.9614 136.41 22.834 136.472 22.6914C136.516 22.4703 136.539 22.2456 136.539 22.0202V17.106C136.539 16.9406 136.539 16.9374 136.329 16.6766C136.119 16.4158 127.372 6.49824 126.975 6.05294C126.478 5.51221 125.607 4.67568 124.28 4.67568H121.243V1.56492H138.387V4.66932H136.32C135.842 4.66932 135.524 5.12416 135.932 5.62354C135.932 5.62354 141.701 12.5257 141.755 12.5989C141.809 12.672 141.857 12.6879 141.93 12.6212C142.004 12.5544 147.843 5.68715 147.888 5.62354C147.957 5.53295 147.998 5.42444 148.008 5.31092C148.017 5.19739 147.993 5.08362 147.94 4.98313C147.886 4.88264 147.805 4.79964 147.705 4.74401C147.606 4.68838 147.493 4.66246 147.379 4.66932H145.257V1.56492H159.313V4.67568H156.174C155.035 4.67568 154.583 4.88561 153.715 5.85255L144.252 16.648C144.16 16.7816 144.119 16.9445 144.138 17.106V22.017C144.139 22.2425 144.163 22.4672 144.208 22.6882C144.269 22.831 144.361 22.9586 144.477 23.0619C144.593 23.1652 144.73 23.2418 144.879 23.2862C145.164 23.3238 145.451 23.3418 145.738 23.3402H148.947V26.451H131.892V23.3402L134.933 23.3434Z" fill="#1A1A1A"/>
</g>
<defs>
<clipPath id="clip0_3730_1107">
<rect width="159.037" height="28" fill="white" transform="translate(0.276367)"/>
</clipPath>
</defs>
</svg>
